
<svg version="1.0" xmlns="http://www.w3.org/2000/svg"
 width="512.000000pt" height="512.000000pt" viewBox="0 0 512.000000 512.000000"
 className="fill-secondary dark:fill-primary"
 >

<g transform="translate(0.000000,512.000000) scale(0.100000,-0.100000)"
fill="#000000" stroke="none">
<path d="M2393 5105 c-154 -28 -310 -101 -438 -204 -100 -81 -169 -124 -248
-152 -53 -18 -94 -23 -282 -29 -239 -9 -307 -21 -444 -79 -215 -91 -411 -287
-502 -502 -60 -140 -72 -206 -75 -417 -4 -282 -33 -369 -182 -554 -88 -109
-159 -246 -194 -373 -31 -115 -31 -354 0 -470 33 -120 111 -271 198 -378 140
-173 174 -272 174 -508 0 -180 16 -289 60 -412 89 -244 304 -463 551 -561 127
-49 182 -58 385 -61 280 -5 372 -34 551 -179 107 -87 258 -165 378 -198 116
-31 355 -31 470 0 146 40 289 118 419 229 61 53 168 107 251 128 40 10 127 16
255 19 207 4 263 13 389 62 242 96 449 303 545 545 49 125 58 182 61 386 5
280 35 372 179 550 87 107 165 258 198 378 31 115 31 355 0 470 -31 115 -112
272 -190 368 -82 102 -124 171 -153 250 -18 53 -23 94 -29 282 -9 239 -21 307
-79 444 -91 215 -287 411 -502 502 -139 59 -206 71 -419 76 -127 2 -216 9
-255 18 -83 21 -190 75 -251 128 -248 211 -530 295 -821 242z m341 -414 c77
-27 125 -56 208 -124 216 -177 430 -251 718 -249 181 2 244 -9 346 -58 110
-53 201 -144 254 -254 50 -104 60 -165 60 -355 0 -296 68 -491 247 -709 100
-121 140 -213 150 -343 11 -144 -37 -284 -140 -409 -71 -86 -108 -142 -147
-220 -86 -171 -111 -289 -114 -544 -2 -165 -5 -187 -28 -247 -66 -175 -179
-287 -355 -351 -50 -18 -84 -21 -248 -24 -209 -3 -294 -16 -431 -66 -91 -32
-229 -114 -309 -182 -130 -112 -230 -151 -385 -151 -158 0 -257 41 -408 167
-68 57 -188 128 -275 162 -129 51 -236 69 -407 68 -192 -1 -253 9 -357 59
-112 54 -198 140 -252 252 -51 105 -61 165 -61 356 0 292 -71 497 -241 702
-118 141 -154 232 -154 389 0 154 39 253 149 385 66 78 104 139 151 238 75
158 108 338 98 524 -7 118 8 196 58 300 53 111 137 195 251 251 104 51 164 61
358 61 173 -1 257 12 396 63 91 32 229 114 309 182 94 80 190 130 295 150 54
10 206 -3 264 -23z"/>
<path d="M2405 4154 c-709 -76 -1277 -596 -1417 -1297 -32 -161 -32 -433 0
-594 92 -460 360 -839 762 -1081 146 -87 320 -153 510 -193 141 -30 438 -33
575 -6 345 69 618 212 853 447 234 234 383 518 449 855 27 139 24 425 -5 572
-129 648 -623 1144 -1267 1273 -98 20 -368 34 -460 24z m415 -423 c352 -80
651 -315 814 -639 84 -168 121 -329 121 -532 0 -157 -12 -236 -56 -372 -58
-179 -154 -335 -293 -474 -171 -170 -371 -280 -606 -330 -106 -23 -352 -26
-455 -5 -245 48 -455 160 -631 335 -173 173 -287 386 -335 631 -21 103 -18
349 5 455 51 235 161 437 330 606 179 178 404 296 636 334 41 6 82 13 90 15
42 11 302 -6 380 -24z"/>
<path d="M2687 2772 l-327 -327 -128 128 -128 128 -145 -140 -144 -140 273
-273 272 -273 472 472 473 473 -80 81 c-44 44 -110 107 -146 139 l-65 59 -327
-327z"/>
</g>
</svg>
