<?xml version="1.0" encoding="UTF-8"?>
<svg width="700pt" height="700pt" version="1.1" viewBox="0 0 700 700" xmlns="http://www.w3.org/2000/svg">
 <g>
  <path d="m448.3 52.5h-70c-6.25 0-12.027-3.3359-15.156-8.75-3.125-5.4141-3.125-12.086 0-17.5 3.1289-5.4141 8.9062-8.75 15.156-8.75h70c6.2539 0 12.031 3.3359 15.156 8.75s3.125 12.086 0 17.5-8.9023 8.75-15.156 8.75z"/>
  <path d="m413.3 105c-4.6406 0-9.0938-1.8438-12.375-5.125s-5.125-7.7344-5.125-12.375v-52.5c0-6.2539 3.3359-12.031 8.75-15.156 5.4141-3.125 12.086-3.125 17.5 0 5.4141 3.125 8.75 8.9023 8.75 15.156v52.5c0 4.6406-1.8438 9.0938-5.125 12.375s-7.7344 5.125-12.375 5.125z"/>
  <path d="m254 166.5c-4.6406 0.007813-9.0938-1.8359-12.371-5.125l-24.746-24.746c-4.293-4.4453-5.9219-10.824-4.2891-16.785 1.6328-5.9609 6.2891-10.617 12.25-12.25 5.9609-1.6328 12.34-0.003906 16.785 4.2891l24.746 24.746c3.2812 3.2812 5.125 7.7344 5.125 12.375 0 4.6406-1.8438 9.0898-5.125 12.371s-7.7344 5.125-12.375 5.125z"/>
  <path d="m572.6 166.5c-4.6406 0-9.0938-1.8438-12.375-5.125s-5.1211-7.7305-5.1211-12.371c0-4.6406 1.8398-9.0938 5.1211-12.375l24.754-24.746c3.2656-3.3633 7.7422-5.2773 12.43-5.3125 4.6875-0.039063 9.1914 1.8086 12.508 5.125 3.3125 3.3125 5.1602 7.8164 5.125 12.504-0.035157 4.6875-1.9492 9.168-5.3164 12.43l-24.758 24.746c-3.2773 3.2852-7.7266 5.1328-12.367 5.125z"/>
  <path d="m184 261.21-114 36.004v143.8-0.003906c-0.5625 16.25 2.8711 32.387 10 47 25 49.598 88 63.801 104 66.801 16-3 78.801-17.199 103.8-67 7.0859-14.344 10.52-30.215 10-46.203v-144.39zm83.797 111.2-77.996 77.801c-3.6914 3.8359-8.7812 6-14.102 6s-10.41-2.1641-14.098-6l-41.402-41.199c-3.7461-3.7383-5.8477-8.8086-5.8477-14.102 0-5.2891 2.1016-10.363 5.8477-14.098 3.7773-3.7461 8.8789-5.8516 14.199-5.8516 5.3203 0 10.426 2.1055 14.199 5.8516l27.199 27 63.598-63.602c3.7773-3.7461 8.8828-5.8477 14.199-5.8477 5.3203 0 10.426 2.1016 14.203 5.8477 3.7422 3.7383 5.8477 8.8086 5.8516 14.102 0 5.2891-2.1055 10.363-5.8516 14.102z"/>
  <path d="m530 295.01c0.046875-4.9805 1.9609-9.7617 5.3711-13.395 3.4102-3.6289 8.0625-5.8477 13.031-6.2031-3.2969-23.367-12.445-45.52-26.602-64.402-3.5352 3.1406-8.0742 4.9141-12.801 5-5.3047-0.019531-10.395-2.0977-14.199-5.7969-3.4844-3.5859-5.5-8.3477-5.6484-13.348-0.14844-4.9961 1.582-9.8672 4.8477-13.656-18.879-14.156-41.031-23.305-64.398-26.598-0.42969 6.6836-4.2344 12.688-10.09 15.93-5.8594 3.2422-12.969 3.2812-18.859 0.097656s-9.7539-9.1484-10.25-15.828c-23.312 3.2812-45.402 12.434-64.203 26.602 3.1484 3.8125 4.7852 8.6484 4.6016 13.59-0.1875 4.9414-2.1797 9.6406-5.6016 13.211-3.5078 3.5312-8.2266 5.6016-13.199 5.7852-4.9766 0.1875-9.8359-1.5234-13.598-4.7891-8.5938 11.516-15.406 24.258-20.203 37.801l45.602 14.398c4.082 1.2812 7.6445 3.8398 10.164 7.2969 2.5195 3.4531 3.8633 7.6289 3.8359 11.906v131.8c16.031 9.8984 33.941 16.367 52.602 19 0.41797-6.7109 4.2422-12.738 10.137-15.977 5.8906-3.2422 13.031-3.2422 18.922 0 5.8945 3.2383 9.7188 9.2656 10.141 15.977 23.367-3.293 45.52-12.441 64.398-26.598-4.4844-5.0547-6.0664-12.055-4.1875-18.547 1.8789-6.4883 6.9531-11.566 13.441-13.441 6.4922-1.8789 13.492-0.29688 18.547 4.1875 14.156-18.879 23.309-41.035 26.602-64.398-4.9688-0.35938-9.6211-2.5742-13.031-6.207-3.4102-3.6289-5.3242-8.4141-5.3711-13.395zm-77.602 20h-42.395c-5.3008-0.015625-10.379-2.125-14.125-5.875-3.75-3.7461-5.8633-8.8242-5.8789-14.125v-59.797c-0.046875-5.3359 2.0352-10.473 5.793-14.266 3.7539-3.7891 8.8711-5.9219 14.207-5.9219 5.3398 0 10.453 2.1328 14.211 5.9219 3.7539 3.793 5.8398 8.9297 5.7891 14.266v39.797h22.402c7.1016 0.066406 13.633 3.8945 17.164 10.055s3.5312 13.73 0 19.891c-3.5312 6.1641-10.062 9.9883-17.164 10.055z"/>
  <path d="m410 515.01c-28.578-0.125-56.859-5.7617-83.301-16.598 5.4297-12.492 8.9258-25.742 10.371-39.289 22.914 10.395 47.773 15.809 72.938 15.887 44.332 0.027343 87.117-16.309 120.15-45.879 33.035-29.566 53.996-70.285 58.867-114.35 4.8672-44.066-6.6953-88.379-32.48-124.45-25.781-36.066-63.969-61.348-107.24-71-43.27-9.6562-88.582-3-127.25 18.691-38.668 21.688-67.969 56.883-82.293 98.84l-38.07-12.035h0.003906c17.32-51.367 53.004-94.527 100.2-121.2 47.199-26.668 102.58-34.965 155.52-23.293 52.941 11.668 99.703 42.477 131.32 86.516 31.613 44.039 45.844 98.203 39.965 152.09-5.8789 53.887-31.457 103.71-71.82 139.89-40.363 36.188-92.672 56.188-146.88 56.168z"/>
 </g>
</svg>
